<svg xmlns="http://www.w3.org/2000/svg" width="600" height="400" viewBox="0 0 600 400" fill="none">
  <rect width="600" height="400" rx="16" fill="#F8FAFC"/>
  <rect x="20" y="20" width="560" height="360" rx="12" fill="white" stroke="#E2E8F0" stroke-width="2"/>
  <rect x="40" y="40" width="160" height="40" rx="8" fill="#3D5FFF"/>
  <text x="120" y="65" fill="white" font-family="sans-serif" font-size="16" font-weight="bold" text-anchor="middle">BRAN GO</text>
  <rect x="360" y="40" width="200" height="70" rx="8" fill="white" stroke="#3D5FFF" stroke-width="2"/>
  <text x="460" y="65" fill="#1E293B" font-family="sans-serif" font-size="13" font-weight="bold" text-anchor="middle">R.U.C. 20601245789</text>
  <text x="460" y="85" fill="#3D5FFF" font-family="sans-serif" font-size="12" font-weight="bold" text-anchor="middle">GUÍA REMISIÓN ELECTRÓNICA</text>
  <line x1="40" y1="130" x2="560" y2="130" stroke="#E2E8F0" stroke-width="2"/>
  <rect x="40" y="150" width="250" height="12" rx="4" fill="#94A3B8"/>
  <rect x="40" y="175" width="200" height="10" rx="4" fill="#CBD5E1"/>
  <rect x="40" y="195" width="300" height="10" rx="4" fill="#E2E8F0"/>
  <rect x="40" y="235" width="520" height="85" rx="8" fill="#F1F5F9"/>
  <rect x="60" y="255" width="480" height="10" rx="4" fill="#CBD5E1"/>
  <rect x="60" y="275" width="380" height="10" rx="4" fill="#E2E8F0"/>
  <text x="300" y="360" fill="#64748B" font-family="sans-serif" font-size="12" font-weight="600" text-anchor="middle">Documento Electrónico SUNAT - BranGo Logistics</text>
</svg>
